<svg width="285" height="301" viewBox="0 0 285 301" fill="none" xmlns="http://www.w3.org/2000/svg">
<path d="M273.22 113.227H12.2332C5.82649 113.227 0.632812 118.421 0.632812 124.828V288.9C0.632812 295.307 5.82649 300.502 12.2332 300.502H273.22C279.626 300.502 284.82 295.307 284.82 288.9V124.828C284.82 118.421 279.626 113.227 273.22 113.227Z" fill="#EEF2FF"/>
<path d="M273.22 113.227H12.2332C10.7104 113.225 9.20216 113.524 7.7948 114.106C6.38744 114.687 5.10853 115.541 4.03118 116.617C2.95384 117.693 2.09918 118.972 1.51606 120.378C0.932948 121.785 0.632812 123.293 0.632813 124.816L0.632813 136.235H284.82V124.816C284.82 123.293 284.52 121.785 283.937 120.378C283.354 118.972 282.499 117.693 281.422 116.617C280.344 115.541 279.065 114.687 277.658 114.106C276.251 113.524 274.742 113.225 273.22 113.227Z" fill="#9FCCFF"/>
<path d="M237.677 129.2C239.947 129.2 241.787 127.359 241.787 125.089C241.787 122.819 239.947 120.979 237.677 120.979C235.407 120.979 233.566 122.819 233.566 125.089C233.566 127.359 235.407 129.2 237.677 129.2Z" stroke="white" stroke-width="1.26019" stroke-linejoin="round"/>
<path d="M253.032 129.2C255.302 129.2 257.143 127.359 257.143 125.089C257.143 122.819 255.302 120.979 253.032 120.979C250.762 120.979 248.922 122.819 248.922 125.089C248.922 127.359 250.762 129.2 253.032 129.2Z" stroke="white" stroke-width="1.26019" stroke-linejoin="round"/>
<path d="M268.39 129.2C270.66 129.2 272.5 127.359 272.5 125.089C272.5 122.819 270.66 120.979 268.39 120.979C266.12 120.979 264.279 122.819 264.279 125.089C264.279 127.359 266.12 129.2 268.39 129.2Z" stroke="white" stroke-width="1.26019" stroke-linejoin="round"/>
<path d="M117.161 170.617C113.918 170.617 110.79 168.459 108.301 166.38L105.275 163.857C103.497 162.33 101.236 161.48 98.8926 161.459H73.0657C72.5085 161.457 71.9565 161.566 71.4412 161.778C70.926 161.99 70.4576 162.302 70.0631 162.696C69.6685 163.089 69.3555 163.557 69.1419 164.071C68.9283 164.586 68.8184 165.138 68.8184 165.695V260.857C68.8184 262.371 69.4198 263.823 70.4904 264.894C71.5611 265.965 73.0131 266.566 74.5272 266.566H204.918C206.432 266.566 207.884 265.965 208.954 264.894C210.025 263.823 210.626 262.371 210.626 260.857V176.36C210.626 174.846 210.025 173.394 208.954 172.323C207.884 171.252 206.432 170.651 204.918 170.651L117.161 170.617Z" fill="#3997FF"/>
<path d="M200.226 188.875H163.335C162.545 188.875 161.787 188.561 161.228 188.002C160.669 187.443 160.355 186.685 160.355 185.894C160.355 185.104 160.669 184.346 161.228 183.787C161.787 183.228 162.545 182.914 163.335 182.914H200.226C201.017 182.914 201.774 183.228 202.333 183.787C202.892 184.346 203.206 185.104 203.206 185.894C203.206 186.685 202.892 187.443 202.333 188.002C201.774 188.561 201.017 188.875 200.226 188.875Z" stroke="white" stroke-width="1.26019" stroke-miterlimit="10"/>
<path d="M247.38 -0.000675377C254.775 0.195559 261.948 2.56409 268.005 6.80964C274.063 11.0552 278.737 16.9899 281.444 23.874C284.152 30.7581 284.774 38.2869 283.232 45.5219C281.69 52.7568 278.053 59.3779 272.773 64.5596C272.23 65.09 271.823 65.7438 271.586 66.4655C271.349 67.1871 271.291 67.9552 271.415 68.7045L274.212 85.2271L257.028 75.213C256.053 74.634 254.897 74.4386 253.786 74.665C249.426 75.5363 244.948 75.6406 240.553 74.9733C230.942 73.658 222.209 68.6865 216.171 61.0937C210.133 53.5009 207.256 43.8719 208.139 34.2111C209.022 24.5503 213.596 15.6022 220.91 9.22958C228.224 2.85693 237.713 -0.449246 247.403 -0.000675377H247.38Z" fill="#D3DDF7"/>
<path d="M245.29 54.5467C245.066 54.5626 244.841 54.5265 244.633 54.4414C244.425 54.3562 244.239 54.2242 244.091 54.0557C243.786 53.662 243.636 53.1707 243.668 52.6741C243.645 52.1819 243.804 51.6983 244.114 51.3153C244.268 51.1529 244.454 51.0237 244.66 50.9353C244.866 50.847 245.088 50.8015 245.312 50.8015C245.537 50.8015 245.759 50.847 245.965 50.9353C246.171 51.0237 246.357 51.1529 246.511 51.3153C246.772 51.7183 246.911 52.1882 246.911 52.6684C246.911 53.1486 246.772 53.6185 246.511 54.0215C246.365 54.2009 246.177 54.3423 245.965 54.4338C245.752 54.5252 245.52 54.564 245.29 54.5467ZM244.97 41.5639C244.97 40.4906 244.89 39.383 244.844 38.2525C244.799 37.1221 244.776 35.9688 244.753 34.827C244.73 33.6851 244.753 32.5433 244.753 31.4014V17.6992H246.112V31.4014C246.112 32.5433 246.112 33.7422 246.112 34.827C246.112 35.9117 246.112 37.1107 246.032 38.2525C245.952 39.3944 245.94 40.5362 245.906 41.5639H244.97Z" fill="url(#paint0_linear_676_2758)"/>
<defs>
<linearGradient id="paint0_linear_676_2758" x1="244.171" y1="54.5507" x2="247.786" y2="54.5158" gradientUnits="userSpaceOnUse">
<stop stop-color="#3997FF"/>
<stop offset="1" stop-color="#F882F2"/>
</linearGradient>
</defs>
</svg>
