<svg width="46" height="46" viewBox="0 0 46 46" fill="none" xmlns="http://www.w3.org/2000/svg">
<path d="M20.7366 1.49613C21.6873 -0.34246 24.3166 -0.34246 25.2673 1.49613L31.3209 13.2042C31.5634 13.6733 31.9457 14.0556 32.4151 14.2982L44.1229 20.3518C45.9616 21.3025 45.9616 23.9319 44.1229 24.8825L32.4151 30.9361C31.9457 31.1787 31.5634 31.5609 31.3209 32.0303L25.2673 43.7382C24.3166 45.5769 21.6873 45.5769 20.7366 43.7382L14.683 32.0303C14.4404 31.5609 14.0581 31.1787 13.5889 30.9361L1.8809 24.8825C0.0423058 23.9319 0.0423058 21.3025 1.8809 20.3518L13.5889 14.2982C14.0581 14.0556 14.4404 13.6733 14.683 13.2042L20.7366 1.49613Z" fill="#3997FF"/>
</svg>
