<svg width="46" height="45" viewBox="0 0 46 45" fill="none" xmlns="http://www.w3.org/2000/svg">
<path fill-rule="evenodd" clip-rule="evenodd" d="M11.7691 0H0.519114V11.25C0.519114 16.9789 4.80138 21.7077 10.3396 22.41C4.72374 23.0404 0.358399 27.805 0.358399 33.5893L0.358398 44.8393H11.6084C17.3373 44.8393 22.0661 40.5569 22.7684 35.0188C23.3988 40.6348 28.1634 45 33.9477 45H45.1977V33.75C45.1977 28.021 40.9153 23.2922 35.3772 22.59C40.9932 21.9596 45.3584 17.195 45.3584 11.4107V0.160714L34.1084 0.160714C28.3794 0.160713 23.6506 4.44298 22.9484 9.98123C22.318 4.36534 17.5533 0 11.7691 0Z" fill="#3997FF"/>
</svg>
