<svg width="46" height="45" viewBox="0 0 46 45" fill="none" xmlns="http://www.w3.org/2000/svg">
<path fill-rule="evenodd" clip-rule="evenodd" d="M23.3722 20.667C22.4395 9.09787 12.7552 0 0.945871 0C0.945871 11.7545 9.9596 21.4038 21.4521 22.4129C9.88303 23.3455 0.785157 33.03 0.785156 44.8393C12.5397 44.8393 22.189 35.8256 23.198 24.3331C24.1307 35.9021 33.8152 45 45.6245 45C45.6245 33.2455 36.6108 23.5962 25.1182 22.5871C36.6873 21.6544 45.7852 11.97 45.7852 0.160714C34.0307 0.160714 24.3814 9.17444 23.3722 20.667ZM23.2846 22.5004L23.2856 22.5007L23.2858 22.4994C23.2854 22.4994 23.2846 22.4994 23.2846 22.4994V22.5004Z" fill="#3997FF"/>
</svg>
